# xmcd CD database file
#
# Track frame offsets:
#	150
#	18188
#	56783
#	92321
#	115594
#	134428
#	157020
#	176284
#	189876
#	220671
#
# Disc length: 3252 seconds
#
# Revision: 0
# Processed by: cddbd v1.5.2PL0 Copyright (c) Steve Scherf et al.
# Submitted via: CDex 1.51
#
DISCID=750cb20a
DTITLE=Gene Bertoncini - Floating on the Silence
DYEAR=2009
DGENRE=Jazz
TTITLE0=On a Misty Night
TTITLE1=I'll Remember April
TTITLE2=Corcovado
TTITLE3=For My Lady
TTITLE4=For Chet
TTITLE5=Con Alma
TTITLE6=The Nearness of You
TTITLE7=A Moment Alone
TTITLE8=How Insensitive
TTITLE9=Like Someone In Love
EXTD=YEAR: 2009
EXTT0=
EXTT1=
EXTT2=
EXTT3=
EXTT4=
EXTT5=
EXTT6=
EXTT7=
EXTT8=
EXTT9=
PLAYORDER=
